<mxfile host="app.diagrams.net" modified="2024-04-30T13:54:51.292Z" agent="Mozilla/5.0 (Windows NT 10.0; Win64; x64) AppleWebKit/537.36 (KHTML, like Gecko) Chrome/124.0.0.0 Safari/537.36" version="24.3.1" etag="-kRHex-sRzZdCIbo7qtt" type="github">
  <diagram name="PÃ¡gina-1" id="PCQWiFcqX4X_CDNOEBMj">
    <mxGraphModel>
      <root>
        <mxCell id="0" />
        <mxCell id="1" parent="0" />
      </root>
    </mxGraphModel>
  </diagram>
</mxfile>
